<?xml version="1.0" encoding="UTF-8"?>
<svg id="a" xmlns="http://www.w3.org/2000/svg" viewBox="0 0 399.99999 344.05591">
  <path d="M372.93382,113.43872C319.2791,32.26465,203.69707-16.28137,114.77427,5.00812,75.856,14.32575,48.49492,35.47638,34.52696,63.12226L14.33677,96.62403c-.22424,.36932-.44983,.73798-.66895,1.10999l-.2489,.41302,.00226,.01813C-7.6053,134.28565-4.56087,182.77686,27.06077,230.61719c53.65472,81.17407,169.23676,129.72009,258.15955,108.4306,35.01849-8.38397,60.67212-26.35236,75.6391-50.00848l.01758-.0127,.242-.40698c.77997-1.2467,1.53082-2.50873,2.25146-3.78625l21.04926-35.39856-.00067-.00031c23.36017-36.45441,21.18127-86.57477-11.48523-135.99579Z" style="fill:#b72c34;"/>
  <ellipse cx="207.32099" cy="159.65347" rx="138.14913" ry="198.40776" transform="translate(-27.82241 274.45245) rotate(-63.62112)" style="fill:#ffc7ca;"/>
  <ellipse cx="210.6454" cy="154.22582" rx="136.6562" ry="196.31155" transform="translate(-20.88241 274.85733) rotate(-63.73063)" style="fill:#e84142;"/>
  <g>
    <path d="M141.85246,53.1242c-2.05622,1.889-2.15073,5.97089-2.33929,14.13459l-3.47253,149.98663-.00038,.00314c-.18648,8.04429-.27945,12.0669,1.63803,15.00161,2.07276,3.17226,5.61192,5.76708,9.52408,6.98276,3.62114,1.12608,8.08804,.30947,17.02131-1.32365l37.67837-6.88812c6.68717-1.22251,10.03052-1.83372,12.55271-3.21988,2.7442-1.5092,4.79197-3.68113,5.97462-6.33696,1.0864-2.43923,1.15849-5.45031,1.30208-11.47243l2.14414-89.57494c.14232-5.93517,.21308-8.90345-.71892-11.8495-1.01426-3.20665-2.88561-6.39864-5.46349-9.31872-2.36824-2.68245-5.56721-5.05094-11.96518-9.78686l-.00102-.00082-37.18994-27.53031c-8.79854-6.51353-13.19812-9.77078-16.85498-10.61071-3.95113-.90783-7.60811-.23659-9.8296,1.80416Z" style="fill:#fff;"/>
    <path d="M351.83285,193.01459c-1.5926-3.01255-5.99893-6.23161-14.81143-12.66875l-42.33352-30.92139-.00239-.00213c-8.68747-6.34557-13.03136-9.51907-16.65435-10.33955-3.91559-.88667-7.53694-.22179-9.75184,1.79047-2.04841,1.86189-2.18769,5.85808-2.4657,13.85033l-1.34978,38.90832c-.28128,8.09447-.42143,12.14265,1.48411,15.09542,2.06016,3.19176,5.60692,5.80967,9.53585,7.0386,3.63775,1.13845,8.1454,.31439,17.15961-1.33353l43.68385-7.986c9.02809-1.65046,13.54217-2.47569,15.27031-4.59717,1.8683-2.29159,1.95581-5.57788,.23527-8.83463Z" style="fill:#fff;"/>
  </g>
</svg>
